<svg width="360" height="78" viewBox="0 0 360 78" fill="none" xmlns="http://www.w3.org/2000/svg">
<rect width="360" height="78" rx="16.25" fill="#EEF2FF"/>
<path d="M14.625 39C14.625 24.6406 26.2656 13 40.625 13V13C54.9844 13 66.625 24.6406 66.625 39V39C66.625 53.3594 54.9844 65 40.625 65V65C26.2656 65 14.625 53.3594 14.625 39V39Z" fill="#D8E2FF"/>
<path fill-rule="evenodd" clip-rule="evenodd" d="M51.6677 29.0118L36.1543 43.9835L32.0377 39.5852C31.2793 38.8702 30.0877 38.8269 29.221 39.4335C28.376 40.0619 28.1377 41.1668 28.6577 42.0552L33.5327 49.9852C34.0093 50.7219 34.8327 51.1769 35.7643 51.1769C36.6527 51.1769 37.4977 50.7219 37.9743 49.9852C38.7543 48.9669 53.6393 31.2218 53.6393 31.2218C55.5893 29.2285 53.2277 27.4735 51.6677 28.9902V29.0118Z" fill="#5C82FF"/>
<path d="M90.955 49.25H86.8417L94.3308 27.9773H99.0881L106.588 49.25H102.474L96.7925 32.3398H96.6263L90.955 49.25ZM91.09 40.9092H102.308V44.0045H91.09V40.9092ZM105.884 31.2077V27.9773H122.856V31.2077H116.281V49.25H112.459V31.2077H105.884ZM137.689 33.8252C137.592 32.9181 137.184 32.2117 136.463 31.7062C135.75 31.2007 134.822 30.948 133.68 30.948C132.876 30.948 132.187 31.0692 131.613 31.3115C131.038 31.5539 130.598 31.8828 130.293 32.2983C129.989 32.7138 129.833 33.1881 129.826 33.7213C129.826 34.1645 129.926 34.5488 130.127 34.8743C130.335 35.1998 130.615 35.4767 130.969 35.7053C131.322 35.9268 131.713 36.1138 132.142 36.2662C132.572 36.4185 133.004 36.5466 133.441 36.6505L135.435 37.1491C136.238 37.336 137.01 37.5888 137.751 37.9073C138.499 38.2259 139.167 38.6275 139.756 39.1122C140.352 39.5969 140.822 40.1821 141.169 40.8676C141.515 41.5532 141.688 42.3564 141.688 43.2774C141.688 44.5239 141.37 45.6214 140.732 46.5701C140.095 47.5119 139.174 48.2494 137.969 48.7826C136.772 49.3089 135.321 49.572 133.617 49.572C131.962 49.572 130.525 49.3158 129.307 48.8034C128.095 48.2909 127.146 47.5431 126.461 46.5597C125.782 45.5764 125.415 44.3785 125.36 42.9658H129.151C129.206 43.7068 129.435 44.3231 129.836 44.8147C130.238 45.3064 130.761 45.6734 131.405 45.9157C132.056 46.1581 132.783 46.2793 133.586 46.2793C134.424 46.2793 135.158 46.1547 135.788 45.9054C136.425 45.6491 136.924 45.296 137.284 44.8459C137.644 44.3888 137.828 43.8556 137.834 43.2463C137.828 42.6923 137.665 42.2353 137.346 41.8752C137.028 41.5082 136.581 41.2035 136.006 40.9611C135.438 40.7118 134.774 40.4902 134.012 40.2963L131.592 39.6731C129.84 39.223 128.455 38.5409 127.437 37.6269C126.426 36.7059 125.92 35.4837 125.92 33.9602C125.92 32.7069 126.26 31.6093 126.938 30.6675C127.624 29.7258 128.555 28.9952 129.733 28.4759C130.91 27.9496 132.243 27.6864 133.732 27.6864C135.241 27.6864 136.564 27.9496 137.699 28.4759C138.842 28.9952 139.739 29.7188 140.39 30.6467C141.041 31.5677 141.376 32.6272 141.397 33.8252H137.689ZM159.172 49.5616C157.579 49.5616 156.212 49.2119 155.069 48.5125C153.934 47.8131 153.058 46.8471 152.441 45.6145C151.832 44.375 151.527 42.9485 151.527 41.335C151.527 39.7147 151.839 38.2847 152.462 37.0452C153.085 35.7987 153.965 34.8293 155.1 34.1368C156.243 33.4374 157.593 33.0877 159.151 33.0877C160.446 33.0877 161.592 33.3266 162.589 33.8044C163.594 34.2753 164.393 34.9435 164.989 35.8091C165.584 36.6678 165.924 37.6719 166.007 38.8214H162.413C162.267 38.0527 161.921 37.4122 161.374 36.8998C160.834 36.3804 160.11 36.1207 159.203 36.1207C158.435 36.1207 157.759 36.3285 157.178 36.744C156.596 37.1525 156.143 37.7411 155.817 38.5098C155.499 39.2784 155.339 40.1994 155.339 41.2727C155.339 42.3599 155.499 43.2947 155.817 44.0772C156.136 44.8528 156.582 45.4518 157.157 45.8742C157.739 46.2897 158.421 46.4974 159.203 46.4974C159.757 46.4974 160.252 46.3936 160.689 46.1858C161.132 45.9711 161.502 45.663 161.8 45.2614C162.098 44.8597 162.302 44.3715 162.413 43.7968H166.007C165.917 44.9255 165.584 45.9261 165.01 46.7987C164.435 47.6642 163.652 48.3429 162.662 48.8345C161.672 49.3192 160.509 49.5616 159.172 49.5616ZM172.854 39.9016V49.25H169.094V27.9773H172.771V36.0065H172.958C173.332 35.1063 173.91 34.3965 174.693 33.8771C175.482 33.3509 176.486 33.0877 177.705 33.0877C178.813 33.0877 179.779 33.3197 180.603 33.7836C181.427 34.2476 182.064 34.9262 182.514 35.8195C182.971 36.7128 183.2 37.8034 183.2 39.0914V49.25H179.44V39.6731C179.44 38.5998 179.163 37.7654 178.609 37.1698C178.062 36.5674 177.293 36.2662 176.303 36.2662C175.638 36.2662 175.043 36.4116 174.516 36.7024C173.997 36.9863 173.588 37.3983 173.291 37.9385C173 38.4786 172.854 39.133 172.854 39.9016ZM194.096 49.5616C192.496 49.5616 191.115 49.2292 189.952 48.5645C188.795 47.8928 187.905 46.9441 187.282 45.7184C186.659 44.4858 186.347 43.0351 186.347 41.3662C186.347 39.7251 186.659 38.2847 187.282 37.0452C187.912 35.7987 188.792 34.8293 189.92 34.1368C191.049 33.4374 192.375 33.0877 193.899 33.0877C194.882 33.0877 195.81 33.247 196.682 33.5655C197.562 33.8771 198.337 34.3619 199.009 35.0197C199.688 35.6776 200.221 36.5154 200.609 37.5334C200.997 38.5444 201.19 39.7493 201.19 41.1481V42.301H188.113V39.7666H197.586C197.579 39.0464 197.423 38.4059 197.119 37.845C196.814 37.2772 196.388 36.8305 195.841 36.5051C195.301 36.1796 194.671 36.0169 193.951 36.0169C193.182 36.0169 192.507 36.2038 191.925 36.5778C191.343 36.9448 190.89 37.4295 190.564 38.032C190.246 38.6275 190.083 39.2819 190.076 39.9951V42.2076C190.076 43.1355 190.246 43.9318 190.585 44.5966C190.925 45.2544 191.399 45.7599 192.008 46.1131C192.618 46.4593 193.331 46.6325 194.148 46.6325C194.695 46.6325 195.19 46.5563 195.633 46.4039C196.077 46.2447 196.461 46.0127 196.786 45.708C197.112 45.4033 197.358 45.0259 197.524 44.5758L201.035 44.9705C200.813 45.8984 200.391 46.7086 199.767 47.4011C199.151 48.0866 198.362 48.6199 197.399 49.0007C196.437 49.3746 195.336 49.5616 194.096 49.5616ZM211.331 49.5616C209.738 49.5616 208.37 49.2119 207.228 48.5125C206.092 47.8131 205.216 46.8471 204.6 45.6145C203.991 44.375 203.686 42.9485 203.686 41.335C203.686 39.7147 203.998 38.2847 204.621 37.0452C205.244 35.7987 206.123 34.8293 207.259 34.1368C208.402 33.4374 209.752 33.0877 211.31 33.0877C212.605 33.0877 213.751 33.3266 214.748 33.8044C215.752 34.2753 216.552 34.9435 217.148 35.8091C217.743 36.6678 218.082 37.6719 218.165 38.8214H214.572C214.426 38.0527 214.08 37.4122 213.533 36.8998C212.993 36.3804 212.269 36.1207 211.362 36.1207C210.593 36.1207 209.918 36.3285 209.336 36.744C208.755 37.1525 208.301 37.7411 207.976 38.5098C207.657 39.2784 207.498 40.1994 207.498 41.2727C207.498 42.3599 207.657 43.2947 207.976 44.0772C208.294 44.8528 208.741 45.4518 209.316 45.8742C209.897 46.2897 210.579 46.4974 211.362 46.4974C211.916 46.4974 212.411 46.3936 212.847 46.1858C213.29 45.9711 213.661 45.663 213.959 45.2614C214.256 44.8597 214.461 44.3715 214.572 43.7968H218.165C218.075 44.9255 217.743 45.9261 217.168 46.7987C216.594 47.6642 215.811 48.3429 214.821 48.8345C213.831 49.3192 212.667 49.5616 211.331 49.5616ZM224.681 44.2434L224.67 39.7043H225.273L231.007 33.2955H235.4L228.347 41.1481H227.568L224.681 44.2434ZM221.253 49.25V27.9773H225.013V49.25H221.253ZM231.266 49.25L226.073 41.9894L228.607 39.3407L235.764 49.25H231.266ZM245.161 55.233V33.2955H248.859V35.9338H249.077C249.271 35.546 249.545 35.134 249.898 34.6977C250.251 34.2545 250.729 33.8771 251.331 33.5655C251.934 33.247 252.703 33.0877 253.637 33.0877C254.87 33.0877 255.981 33.4028 256.972 34.0329C257.969 34.6562 258.758 35.5806 259.34 36.8063C259.928 38.025 260.223 39.5208 260.223 41.2935C260.223 43.0455 259.935 44.5343 259.361 45.7599C258.786 46.9856 258.003 47.9205 257.013 48.5645C256.023 49.2085 254.901 49.5305 253.648 49.5305C252.734 49.5305 251.975 49.3781 251.373 49.0734C250.771 48.7687 250.286 48.4017 249.919 47.9724C249.559 47.5361 249.278 47.1241 249.077 46.7363H248.922V55.233H245.161ZM248.849 41.2727C248.849 42.3045 248.994 43.2082 249.285 43.9838C249.583 44.7593 250.009 45.3652 250.563 45.8015C251.124 46.2308 251.802 46.4455 252.599 46.4455C253.43 46.4455 254.126 46.2239 254.686 45.7807C255.247 45.3306 255.67 44.7178 255.954 43.9422C256.244 43.1597 256.39 42.2699 256.39 41.2727C256.39 40.2825 256.248 39.4031 255.964 38.6344C255.68 37.8658 255.258 37.2633 254.697 36.8271C254.136 36.3908 253.437 36.1727 252.599 36.1727C251.795 36.1727 251.113 36.3839 250.552 36.8063C249.991 37.2287 249.566 37.8208 249.275 38.5825C248.991 39.3442 248.849 40.2409 248.849 41.2727ZM268.034 49.572C267.023 49.572 266.112 49.392 265.302 49.0319C264.499 48.6649 263.862 48.1247 263.391 47.4115C262.927 46.6982 262.695 45.8188 262.695 44.7732C262.695 43.873 262.861 43.1286 263.193 42.5399C263.526 41.9513 263.979 41.4805 264.554 41.1273C265.129 40.7741 265.776 40.5075 266.497 40.3275C267.224 40.1405 267.975 40.0055 268.751 39.9224C269.685 39.8255 270.444 39.7389 271.025 39.6627C271.607 39.5796 272.029 39.455 272.293 39.2888C272.563 39.1157 272.698 38.8491 272.698 38.489V38.4267C272.698 37.6442 272.466 37.0383 272.002 36.6089C271.538 36.1796 270.869 35.9649 269.997 35.9649C269.076 35.9649 268.345 36.1657 267.805 36.5674C267.272 36.969 266.912 37.4434 266.725 37.9904L263.214 37.4918C263.491 36.5224 263.948 35.7122 264.585 35.0613C265.222 34.4034 266.001 33.9118 266.922 33.5863C267.843 33.2539 268.861 33.0877 269.976 33.0877C270.745 33.0877 271.51 33.1777 272.272 33.3578C273.033 33.5378 273.729 33.8356 274.36 34.2511C274.99 34.6596 275.495 35.2171 275.876 35.9234C276.264 36.6297 276.458 37.5126 276.458 38.5721V49.25H272.843V47.0583H272.718C272.49 47.5015 272.168 47.917 271.752 48.3048C271.344 48.6856 270.828 48.9938 270.205 49.2292C269.588 49.4577 268.865 49.572 268.034 49.572ZM269.01 46.809C269.765 46.809 270.419 46.6602 270.973 46.3624C271.527 46.0577 271.953 45.6561 272.251 45.1575C272.556 44.6589 272.708 44.1153 272.708 43.5267V41.6467C272.59 41.7436 272.389 41.8336 272.106 41.9167C271.829 41.9998 271.517 42.0725 271.171 42.1349C270.824 42.1972 270.482 42.2526 270.142 42.301C269.803 42.3495 269.509 42.3911 269.259 42.4257C268.699 42.5019 268.197 42.6265 267.753 42.7996C267.31 42.9727 266.96 43.2151 266.704 43.5267C266.448 43.8314 266.32 44.2261 266.32 44.7108C266.32 45.4033 266.573 45.9261 267.078 46.2793C267.584 46.6325 268.228 46.809 269.01 46.809ZM292.849 37.5126L289.421 37.8865C289.324 37.5403 289.154 37.2148 288.912 36.9102C288.676 36.6055 288.358 36.3596 287.956 36.1727C287.555 35.9857 287.063 35.8922 286.481 35.8922C285.699 35.8922 285.041 36.0619 284.508 36.4012C283.981 36.7405 283.722 37.1802 283.729 37.7203C283.722 38.1843 283.891 38.5617 284.238 38.8525C284.591 39.1434 285.172 39.3823 285.983 39.5692L288.704 40.1509C290.214 40.4764 291.335 40.9923 292.07 41.6986C292.81 42.4049 293.184 43.3294 293.191 44.4719C293.184 45.476 292.89 46.3624 292.308 47.131C291.734 47.8928 290.934 48.4883 289.909 48.9176C288.884 49.3469 287.707 49.5616 286.377 49.5616C284.425 49.5616 282.853 49.1531 281.662 48.3359C280.471 47.5119 279.761 46.3659 279.532 44.8978L283.199 44.5447C283.365 45.2648 283.718 45.8084 284.258 46.1754C284.799 46.5424 285.501 46.7259 286.367 46.7259C287.26 46.7259 287.977 46.5424 288.517 46.1754C289.064 45.8084 289.338 45.3548 289.338 44.8147C289.338 44.3577 289.161 43.9803 288.808 43.6825C288.462 43.3848 287.922 43.1562 287.188 42.997L284.466 42.4257C282.936 42.1072 281.804 41.5705 281.07 40.8157C280.336 40.054 279.972 39.0914 279.979 37.9281C279.972 36.9448 280.239 36.093 280.779 35.3729C281.326 34.6458 282.084 34.0849 283.054 33.6902C284.03 33.2885 285.155 33.0877 286.429 33.0877C288.299 33.0877 289.771 33.4859 290.844 34.2822C291.924 35.0786 292.592 36.1554 292.849 37.5126ZM308.902 37.5126L305.474 37.8865C305.377 37.5403 305.207 37.2148 304.965 36.9102C304.73 36.6055 304.411 36.3596 304.009 36.1727C303.608 35.9857 303.116 35.8922 302.534 35.8922C301.752 35.8922 301.094 36.0619 300.561 36.4012C300.035 36.7405 299.775 37.1802 299.782 37.7203C299.775 38.1843 299.945 38.5617 300.291 38.8525C300.644 39.1434 301.226 39.3823 302.036 39.5692L304.757 40.1509C306.267 40.4764 307.389 40.9923 308.123 41.6986C308.864 42.4049 309.238 43.3294 309.245 44.4719C309.238 45.476 308.943 46.3624 308.362 47.131C307.787 47.8928 306.987 48.4883 305.962 48.9176C304.937 49.3469 303.76 49.5616 302.431 49.5616C300.478 49.5616 298.906 49.1531 297.715 48.3359C296.524 47.5119 295.814 46.3659 295.586 44.8978L299.252 44.5447C299.418 45.2648 299.772 45.8084 300.312 46.1754C300.852 46.5424 301.555 46.7259 302.42 46.7259C303.314 46.7259 304.03 46.5424 304.57 46.1754C305.117 45.8084 305.391 45.3548 305.391 44.8147C305.391 44.3577 305.214 43.9803 304.861 43.6825C304.515 43.3848 303.975 43.1562 303.241 42.997L300.519 42.4257C298.989 42.1072 297.857 41.5705 297.123 40.8157C296.389 40.054 296.025 39.0914 296.032 37.9281C296.025 36.9448 296.292 36.093 296.832 35.3729C297.379 34.6458 298.137 34.0849 299.107 33.6902C300.083 33.2885 301.208 33.0877 302.483 33.0877C304.352 33.0877 305.824 33.4859 306.897 34.2822C307.977 35.0786 308.646 36.1554 308.902 37.5126ZM319.408 49.5616C317.809 49.5616 316.427 49.2292 315.264 48.5645C314.107 47.8928 313.218 46.9441 312.594 45.7184C311.971 44.4858 311.66 43.0351 311.66 41.3662C311.66 39.7251 311.971 38.2847 312.594 37.0452C313.225 35.7987 314.104 34.8293 315.233 34.1368C316.361 33.4374 317.688 33.0877 319.211 33.0877C320.194 33.0877 321.122 33.247 321.995 33.5655C322.874 33.8771 323.65 34.3619 324.321 35.0197C325 35.6776 325.533 36.5154 325.921 37.5334C326.309 38.5444 326.503 39.7493 326.503 41.1481V42.301H313.425V39.7666H322.898C322.891 39.0464 322.736 38.4059 322.431 37.845C322.126 37.2772 321.7 36.8305 321.153 36.5051C320.613 36.1796 319.983 36.0169 319.263 36.0169C318.494 36.0169 317.819 36.2038 317.237 36.5778C316.656 36.9448 316.202 37.4295 315.877 38.032C315.558 38.6275 315.395 39.2819 315.388 39.9951V42.2076C315.388 43.1355 315.558 43.9318 315.897 44.5966C316.237 45.2544 316.711 45.7599 317.32 46.1131C317.93 46.4593 318.643 46.6325 319.46 46.6325C320.007 46.6325 320.502 46.5563 320.946 46.4039C321.389 46.2447 321.773 46.0127 322.099 45.708C322.424 45.4033 322.67 45.0259 322.836 44.5758L326.347 44.9705C326.125 45.8984 325.703 46.7086 325.08 47.4011C324.463 48.0866 323.674 48.6199 322.711 49.0007C321.749 49.3746 320.648 49.5616 319.408 49.5616ZM335.604 49.5305C334.351 49.5305 333.229 49.2085 332.239 48.5645C331.249 47.9205 330.466 46.9856 329.891 45.7599C329.317 44.5343 329.029 43.0455 329.029 41.2935C329.029 39.5208 329.32 38.025 329.902 36.8063C330.49 35.5806 331.283 34.6562 332.28 34.0329C333.278 33.4028 334.389 33.0877 335.615 33.0877C336.55 33.0877 337.318 33.247 337.921 33.5655C338.523 33.8771 339.001 34.2545 339.354 34.6977C339.707 35.134 339.981 35.546 340.175 35.9338H340.33V27.9773H344.101V49.25H340.403V46.7363H340.175C339.981 47.1241 339.7 47.5361 339.333 47.9724C338.966 48.4017 338.482 48.7687 337.879 49.0734C337.277 49.3781 336.518 49.5305 335.604 49.5305ZM336.653 46.4455C337.45 46.4455 338.128 46.2308 338.689 45.8015C339.25 45.3652 339.676 44.7593 339.967 43.9838C340.258 43.2082 340.403 42.3045 340.403 41.2727C340.403 40.2409 340.258 39.3442 339.967 38.5825C339.683 37.8208 339.261 37.2287 338.7 36.8063C338.146 36.3839 337.464 36.1727 336.653 36.1727C335.816 36.1727 335.116 36.3908 334.555 36.8271C333.994 37.2633 333.572 37.8658 333.288 38.6344C333.004 39.4031 332.862 40.2825 332.862 41.2727C332.862 42.2699 333.004 43.1597 333.288 43.9422C333.579 44.7178 334.005 45.3306 334.566 45.7807C335.133 46.2239 335.829 46.4455 336.653 46.4455Z" fill="#6689FB"/>
</svg>
