<svg width="157" height="48" viewBox="0 0 157 48" fill="none" xmlns="http://www.w3.org/2000/svg">
<path fill-rule="evenodd" clip-rule="evenodd" d="M18.5 19V4L21.5 4V19H18.5Z" fill="#2563EB"/>
<path fill-rule="evenodd" clip-rule="evenodd" d="M18.5 44V29H21.5V44H18.5Z" fill="#2563EB"/>
<path fill-rule="evenodd" clip-rule="evenodd" d="M22.4754 19.404L33.082 8.79736L35.2034 10.9187L26.7181 19.404L22.4754 19.404Z" fill="#2563EB"/>
<path fill-rule="evenodd" clip-rule="evenodd" d="M4.79776 37.0816L15.4044 26.475L17.5257 28.5964L6.91908 39.203L4.79776 37.0816Z" fill="#2563EB"/>
<path fill-rule="evenodd" clip-rule="evenodd" d="M26.7178 28.5963L35.2031 37.0815L33.0818 39.2029L22.4752 28.5963H26.7178Z" fill="#2563EB"/>
<path fill-rule="evenodd" clip-rule="evenodd" d="M6.91885 8.79727L17.5255 19.4039L15.4041 21.5252L4.79753 10.9186L6.91885 8.79727Z" fill="#2563EB"/>
<path fill-rule="evenodd" clip-rule="evenodd" d="M18.5 22.5L40 22.5V25.5L18.5 25.5V22.5Z" fill="#2563EB"/>
<path fill-rule="evenodd" clip-rule="evenodd" d="M2.62269e-07 22.5L15 22.5V25.5L0 25.5L2.62269e-07 22.5Z" fill="#2563EB"/>
<path d="M49.992 32.5V15.7H57.264C58.768 15.7 60.064 15.948 61.152 16.444C62.24 16.924 63.08 17.62 63.672 18.532C64.264 19.444 64.56 20.532 64.56 21.796C64.56 23.044 64.264 24.124 63.672 25.036C63.08 25.932 62.24 26.62 61.152 27.1C60.064 27.58 58.768 27.82 57.264 27.82H52.152L53.88 26.116V32.5H49.992ZM60.672 32.5L56.472 26.404H60.624L64.872 32.5H60.672ZM53.88 26.548L52.152 24.724H57.048C58.248 24.724 59.144 24.468 59.736 23.956C60.328 23.428 60.624 22.708 60.624 21.796C60.624 20.868 60.328 20.148 59.736 19.636C59.144 19.124 58.248 18.868 57.048 18.868H52.152L53.88 17.02V26.548ZM73.7844 32.692C72.3124 32.692 71.0164 32.404 69.8964 31.828C68.7924 31.252 67.9364 30.468 67.3284 29.476C66.7204 28.468 66.4164 27.324 66.4164 26.044C66.4164 24.748 66.7124 23.604 67.3044 22.612C67.9124 21.604 68.7364 20.82 69.7764 20.26C70.8164 19.684 71.9924 19.396 73.3044 19.396C74.5684 19.396 75.7044 19.668 76.7124 20.212C77.7364 20.74 78.5444 21.508 79.1364 22.516C79.7284 23.508 80.0244 24.7 80.0244 26.092C80.0244 26.236 80.0164 26.404 80.0004 26.596C79.9844 26.772 79.9684 26.94 79.9524 27.1H69.4644V24.916H77.9844L76.5444 25.564C76.5444 24.892 76.4084 24.308 76.1364 23.812C75.8644 23.316 75.4884 22.932 75.0084 22.66C74.5284 22.372 73.9684 22.228 73.3284 22.228C72.6884 22.228 72.1204 22.372 71.6244 22.66C71.1444 22.932 70.7684 23.324 70.4964 23.836C70.2244 24.332 70.0884 24.924 70.0884 25.612V26.188C70.0884 26.892 70.2404 27.516 70.5444 28.06C70.8644 28.588 71.3044 28.996 71.8644 29.284C72.4404 29.556 73.1124 29.692 73.8804 29.692C74.5684 29.692 75.1684 29.588 75.6804 29.38C76.2084 29.172 76.6884 28.86 77.1204 28.444L79.1124 30.604C78.5204 31.276 77.7764 31.796 76.8804 32.164C75.9844 32.516 74.9524 32.692 73.7844 32.692ZM86.8611 32.692C85.7571 32.692 84.6931 32.564 83.6691 32.308C82.6611 32.036 81.8611 31.7 81.2691 31.3L82.5171 28.612C83.1091 28.98 83.8051 29.284 84.6051 29.524C85.4211 29.748 86.2211 29.86 87.0051 29.86C87.8691 29.86 88.4771 29.756 88.8291 29.548C89.1971 29.34 89.3811 29.052 89.3811 28.684C89.3811 28.38 89.2371 28.156 88.9491 28.012C88.6771 27.852 88.3091 27.732 87.8451 27.652C87.3811 27.572 86.8691 27.492 86.3091 27.412C85.7651 27.332 85.2131 27.228 84.6531 27.1C84.0931 26.956 83.5811 26.748 83.1171 26.476C82.6531 26.204 82.2771 25.836 81.9891 25.372C81.7171 24.908 81.5811 24.308 81.5811 23.572C81.5811 22.756 81.8131 22.036 82.2771 21.412C82.7571 20.788 83.4451 20.3 84.3411 19.948C85.2371 19.58 86.3091 19.396 87.5571 19.396C88.4371 19.396 89.3331 19.492 90.2451 19.684C91.1571 19.876 91.9171 20.156 92.5251 20.524L91.2771 23.188C90.6531 22.82 90.0211 22.572 89.3811 22.444C88.7571 22.3 88.1491 22.228 87.5571 22.228C86.7251 22.228 86.1171 22.34 85.7331 22.564C85.3491 22.788 85.1571 23.076 85.1571 23.428C85.1571 23.748 85.2931 23.988 85.5651 24.148C85.8531 24.308 86.2291 24.436 86.6931 24.532C87.1571 24.628 87.6611 24.716 88.2051 24.796C88.7651 24.86 89.3251 24.964 89.8851 25.108C90.4451 25.252 90.9491 25.46 91.3971 25.732C91.8611 25.988 92.2371 26.348 92.5251 26.812C92.8131 27.26 92.9571 27.852 92.9571 28.588C92.9571 29.388 92.7171 30.1 92.2371 30.724C91.7571 31.332 91.0611 31.812 90.1491 32.164C89.2531 32.516 88.1571 32.692 86.8611 32.692ZM100.715 32.692C99.6431 32.692 98.6831 32.484 97.8351 32.068C97.0031 31.652 96.3551 31.02 95.8911 30.172C95.4271 29.308 95.1951 28.212 95.1951 26.884V19.588H98.9391V26.332C98.9391 27.404 99.1631 28.196 99.6111 28.708C100.075 29.204 100.723 29.452 101.555 29.452C102.131 29.452 102.643 29.332 103.091 29.092C103.539 28.836 103.891 28.452 104.147 27.94C104.403 27.412 104.531 26.756 104.531 25.972V19.588H108.275V32.5H104.723V28.948L105.371 29.98C104.939 30.876 104.299 31.556 103.451 32.02C102.619 32.468 101.707 32.692 100.715 32.692ZM128.28 19.396C129.304 19.396 130.208 19.604 130.992 20.02C131.792 20.42 132.416 21.044 132.864 21.892C133.328 22.724 133.56 23.796 133.56 25.108V32.5H129.816V25.684C129.816 24.644 129.6 23.876 129.168 23.38C128.736 22.884 128.128 22.636 127.344 22.636C126.8 22.636 126.312 22.764 125.88 23.02C125.448 23.26 125.112 23.628 124.872 24.124C124.632 24.62 124.512 25.252 124.512 26.02V32.5H120.768V25.684C120.768 24.644 120.552 23.876 120.12 23.38C119.704 22.884 119.104 22.636 118.32 22.636C117.776 22.636 117.288 22.764 116.856 23.02C116.424 23.26 116.088 23.628 115.848 24.124C115.608 24.62 115.488 25.252 115.488 26.02V32.5H111.744V19.588H115.32V23.116L114.648 22.084C115.096 21.204 115.728 20.54 116.544 20.092C117.376 19.628 118.32 19.396 119.376 19.396C120.56 19.396 121.592 19.7 122.472 20.308C123.368 20.9 123.96 21.812 124.248 23.044L122.928 22.684C123.36 21.676 124.048 20.876 124.992 20.284C125.952 19.692 127.048 19.396 128.28 19.396ZM136.916 32.5V19.588H140.66V32.5H136.916ZM138.788 17.788C138.1 17.788 137.54 17.588 137.108 17.188C136.676 16.788 136.46 16.292 136.46 15.7C136.46 15.108 136.676 14.612 137.108 14.212C137.54 13.812 138.1 13.612 138.788 13.612C139.476 13.612 140.036 13.804 140.468 14.188C140.9 14.556 141.116 15.036 141.116 15.628C141.116 16.252 140.9 16.772 140.468 17.188C140.052 17.588 139.492 17.788 138.788 17.788ZM142.502 32.5L148.286 24.916L148.214 26.98L142.67 19.588H146.87L150.374 24.412L148.79 24.46L152.414 19.588H156.398L150.83 26.908V24.892L156.59 32.5H152.342L148.67 27.364L150.23 27.58L146.582 32.5H142.502Z" fill="black"/>
</svg>
